<?xml version="1.0" standalone="no"?><!DOCTYPE svg PUBLIC "-//W3C//DTD SVG 1.1//EN" "http://www.w3.org/Graphics/SVG/1.1/DTD/svg11.dtd"><svg t="1759722084407" class="icon" viewBox="0 0 1024 1024" version="1.1" xmlns="http://www.w3.org/2000/svg" p-id="13441" xmlns:xlink="http://www.w3.org/1999/xlink" width="200" height="200"><path d="M52.927553 757.705201a48.736237 48.736237 0 1 1 86.847975-44.301239A389.889896 389.889896 0 1 0 97.472474 536.63763a48.736237 48.736237 0 0 1-97.472474 0C0 267.467393 218.192133 49.27526 487.36237 49.27526s487.36237 218.192133 487.36237 487.36237-218.192133 487.36237-487.36237 487.36237c-185.197701 0-351.875631-104.295547-434.434817-266.294799z" fill="#1E90FF" p-id="13442"></path><path d="M487.36237 829.055052a292.417422 292.417422 0 1 1 0-584.834844 292.417422 292.417422 0 0 1 0 584.834844z m0-97.472474a194.944948 194.944948 0 1 0 0-389.889896 194.944948 194.944948 0 0 0 0 389.889896z" fill="#1E90FF" p-id="13443"></path><path d="M521.331527 569.92448a48.736237 48.736237 0 1 1-68.961775-68.913039L841.674813 111.657643a48.736237 48.736237 0 1 1 68.913039 68.913039l-389.256325 389.305062z" fill="#1E90FF" p-id="13444"></path><path d="M974.72474 97.426662a48.736237 48.736237 0 1 1 0 97.472474h-98.593407a48.736237 48.736237 0 0 1-48.736237-49.272336l1.120933-97.472474A48.736237 48.736237 0 1 1 925.988503 49.27526l-0.536098 48.151402H974.72474z" fill="#1E90FF" p-id="13445"></path></svg>