<?xml version="1.0" standalone="no"?><!DOCTYPE svg PUBLIC "-//W3C//DTD SVG 1.1//EN" "http://www.w3.org/Graphics/SVG/1.1/DTD/svg11.dtd"><svg t="1759722108484" class="icon" viewBox="0 0 1024 1024" version="1.1" xmlns="http://www.w3.org/2000/svg" p-id="15717" xmlns:xlink="http://www.w3.org/1999/xlink" width="200" height="200"><path d="M15.999977 0v1023.9985" fill="#ffffff" p-id="15718"></path><path d="M31.999953 0v1023.9985" fill="#ffffff" p-id="15719"></path><path d="M47.99993 0v1023.9985" fill="#ffffff" p-id="15720"></path><path d="M63.999906 0v1023.9985" fill="#ffffff" p-id="15721"></path><path d="M79.999883 0v1023.9985" fill="#ffffff" p-id="15722"></path><path d="M95.999859 0v1023.9985" fill="#ffffff" p-id="15723"></path><path d="M111.999836 0v1023.9985" fill="#ffffff" p-id="15724"></path><path d="M127.999813 0v1023.9985" fill="#ffffff" p-id="15725"></path><path d="M143.999789 0v1023.9985" fill="#ffffff" p-id="15726"></path><path d="M159.999766 0v1023.9985" fill="#ffffff" p-id="15727"></path><path d="M175.999742 0v1023.9985" fill="#ffffff" p-id="15728"></path><path d="M191.999719 0v1023.9985" fill="#ffffff" p-id="15729"></path><path d="M207.999695 0v1023.9985" fill="#ffffff" p-id="15730"></path><path d="M223.999672 0v1023.9985" fill="#ffffff" p-id="15731"></path><path d="M239.999648 0v1023.9985" fill="#ffffff" p-id="15732"></path><path d="M255.999625 0v1023.9985" fill="#ffffff" p-id="15733"></path><path d="M271.999602 0v1023.9985" fill="#ffffff" p-id="15734"></path><path d="M287.999578 0v1023.9985" fill="#ffffff" p-id="15735"></path><path d="M303.999555 0v1023.9985" fill="#ffffff" p-id="15736"></path><path d="M319.999531 0v1023.9985" fill="#ffffff" p-id="15737"></path><path d="M335.999508 0v1023.9985" fill="#ffffff" p-id="15738"></path><path d="M351.999484 0v1023.9985" fill="#ffffff" p-id="15739"></path><path d="M367.999461 0v1023.9985" fill="#ffffff" p-id="15740"></path><path d="M383.999438 0v1023.9985" fill="#ffffff" p-id="15741"></path><path d="M399.999414 0v1023.9985" fill="#ffffff" p-id="15742"></path><path d="M415.999391 0v1023.9985" fill="#ffffff" p-id="15743"></path><path d="M431.999367 0v1023.9985" fill="#ffffff" p-id="15744"></path><path d="M447.999344 0v1023.9985" fill="#ffffff" p-id="15745"></path><path d="M463.99932 0v1023.9985" fill="#ffffff" p-id="15746"></path><path d="M479.999297 0v1023.9985" fill="#ffffff" p-id="15747"></path><path d="M495.999273 0v1023.9985" fill="#ffffff" p-id="15748"></path><path d="M511.99925 0v1023.9985" fill="#ffffff" p-id="15749"></path><path d="M527.999227 0v1023.9985" fill="#ffffff" p-id="15750"></path><path d="M543.999203 0v1023.9985" fill="#ffffff" p-id="15751"></path><path d="M559.99918 0v1023.9985" fill="#ffffff" p-id="15752"></path><path d="M575.999156 0v1023.9985" fill="#ffffff" p-id="15753"></path><path d="M591.999133 0v1023.9985" fill="#ffffff" p-id="15754"></path><path d="M607.999109 0v1023.9985" fill="#ffffff" p-id="15755"></path><path d="M623.999086 0v1023.9985" fill="#ffffff" p-id="15756"></path><path d="M639.999063 0v1023.9985" fill="#ffffff" p-id="15757"></path><path d="M655.999039 0v1023.9985" fill="#ffffff" p-id="15758"></path><path d="M671.999016 0v1023.9985" fill="#ffffff" p-id="15759"></path><path d="M687.998992 0v1023.9985" fill="#ffffff" p-id="15760"></path><path d="M703.998969 0v1023.9985" fill="#ffffff" p-id="15761"></path><path d="M719.998945 0v1023.9985" fill="#ffffff" p-id="15762"></path><path d="M735.998922 0v1023.9985" fill="#ffffff" p-id="15763"></path><path d="M751.998898 0v1023.9985" fill="#ffffff" p-id="15764"></path><path d="M767.998875 0v1023.9985" fill="#ffffff" p-id="15765"></path><path d="M783.998852 0v1023.9985" fill="#ffffff" p-id="15766"></path><path d="M799.998828 0v1023.9985" fill="#ffffff" p-id="15767"></path><path d="M815.998805 0v1023.9985" fill="#ffffff" p-id="15768"></path><path d="M831.998781 0v1023.9985" fill="#ffffff" p-id="15769"></path><path d="M847.998758 0v1023.9985" fill="#ffffff" p-id="15770"></path><path d="M863.998734 0v1023.9985" fill="#ffffff" p-id="15771"></path><path d="M879.998711 0v1023.9985" fill="#ffffff" p-id="15772"></path><path d="M895.998688 0v1023.9985" fill="#ffffff" p-id="15773"></path><path d="M911.998664 0v1023.9985" fill="#ffffff" p-id="15774"></path><path d="M927.998641 0v1023.9985" fill="#ffffff" p-id="15775"></path><path d="M943.998617 0v1023.9985" fill="#ffffff" p-id="15776"></path><path d="M959.998594 0v1023.9985" fill="#ffffff" p-id="15777"></path><path d="M975.99857 0v1023.9985" fill="#ffffff" p-id="15778"></path><path d="M991.998547 0v1023.9985" fill="#ffffff" p-id="15779"></path><path d="M1007.998523 0v1023.9985M0 15.999977h1023.9985" fill="#ffffff" p-id="15780"></path><path d="M0 31.999953h1023.9985" fill="#ffffff" p-id="15781"></path><path d="M0 47.99993h1023.9985" fill="#ffffff" p-id="15782"></path><path d="M0 63.999906h1023.9985" fill="#ffffff" p-id="15783"></path><path d="M0 79.999883h1023.9985" fill="#ffffff" p-id="15784"></path><path d="M0 95.999859h1023.9985" fill="#ffffff" p-id="15785"></path><path d="M0 111.999836h1023.9985" fill="#ffffff" p-id="15786"></path><path d="M0 127.999813h1023.9985" fill="#ffffff" p-id="15787"></path><path d="M0 143.999789h1023.9985" fill="#ffffff" p-id="15788"></path><path d="M0 159.999766h1023.9985" fill="#ffffff" p-id="15789"></path><path d="M0 175.999742h1023.9985" fill="#ffffff" p-id="15790"></path><path d="M0 191.999719h1023.9985" fill="#ffffff" p-id="15791"></path><path d="M0 207.999695h1023.9985" fill="#ffffff" p-id="15792"></path><path d="M0 223.999672h1023.9985" fill="#ffffff" p-id="15793"></path><path d="M0 239.999648h1023.9985" fill="#ffffff" p-id="15794"></path><path d="M0 255.999625h1023.9985" fill="#ffffff" p-id="15795"></path><path d="M0 271.999602h1023.9985" fill="#ffffff" p-id="15796"></path><path d="M0 287.999578h1023.9985" fill="#ffffff" p-id="15797"></path><path d="M0 303.999555h1023.9985" fill="#ffffff" p-id="15798"></path><path d="M0 319.999531h1023.9985" fill="#ffffff" p-id="15799"></path><path d="M0 335.999508h1023.9985" fill="#ffffff" p-id="15800"></path><path d="M0 351.999484h1023.9985" fill="#ffffff" p-id="15801"></path><path d="M0 367.999461h1023.9985" fill="#ffffff" p-id="15802"></path><path d="M0 383.999438h1023.9985" fill="#ffffff" p-id="15803"></path><path d="M0 399.999414h1023.9985" fill="#ffffff" p-id="15804"></path><path d="M0 415.999391h1023.9985" fill="#ffffff" p-id="15805"></path><path d="M0 431.999367h1023.9985" fill="#ffffff" p-id="15806"></path><path d="M0 447.999344h1023.9985" fill="#ffffff" p-id="15807"></path><path d="M0 463.99932h1023.9985" fill="#ffffff" p-id="15808"></path><path d="M0 479.999297h1023.9985" fill="#ffffff" p-id="15809"></path><path d="M0 495.999273h1023.9985" fill="#ffffff" p-id="15810"></path><path d="M0 511.99925h1023.9985" fill="#ffffff" p-id="15811"></path><path d="M0 527.999227h1023.9985" fill="#ffffff" p-id="15812"></path><path d="M0 543.999203h1023.9985" fill="#ffffff" p-id="15813"></path><path d="M0 559.99918h1023.9985" fill="#ffffff" p-id="15814"></path><path d="M0 575.999156h1023.9985" fill="#ffffff" p-id="15815"></path><path d="M0 591.999133h1023.9985" fill="#ffffff" p-id="15816"></path><path d="M0 607.999109h1023.9985" fill="#ffffff" p-id="15817"></path><path d="M0 623.999086h1023.9985" fill="#ffffff" p-id="15818"></path><path d="M0 639.999063h1023.9985" fill="#ffffff" p-id="15819"></path><path d="M0 655.999039h1023.9985" fill="#ffffff" p-id="15820"></path><path d="M0 671.999016h1023.9985" fill="#ffffff" p-id="15821"></path><path d="M0 687.998992h1023.9985" fill="#ffffff" p-id="15822"></path><path d="M0 703.998969h1023.9985" fill="#ffffff" p-id="15823"></path><path d="M0 719.998945h1023.9985" fill="#ffffff" p-id="15824"></path><path d="M0 735.998922h1023.9985" fill="#ffffff" p-id="15825"></path><path d="M0 751.998898h1023.9985" fill="#ffffff" p-id="15826"></path><path d="M0 767.998875h1023.9985" fill="#ffffff" p-id="15827"></path><path d="M0 783.998852h1023.9985" fill="#ffffff" p-id="15828"></path><path d="M0 799.998828h1023.9985" fill="#ffffff" p-id="15829"></path><path d="M0 815.998805h1023.9985" fill="#ffffff" p-id="15830"></path><path d="M0 831.998781h1023.9985" fill="#ffffff" p-id="15831"></path><path d="M0 847.998758h1023.9985" fill="#ffffff" p-id="15832"></path><path d="M0 863.998734h1023.9985" fill="#ffffff" p-id="15833"></path><path d="M0 879.998711h1023.9985" fill="#ffffff" p-id="15834"></path><path d="M0 895.998688h1023.9985" fill="#ffffff" p-id="15835"></path><path d="M0 911.998664h1023.9985" fill="#ffffff" p-id="15836"></path><path d="M0 927.998641h1023.9985" fill="#ffffff" p-id="15837"></path><path d="M0 943.998617h1023.9985" fill="#ffffff" p-id="15838"></path><path d="M0 959.998594h1023.9985" fill="#ffffff" p-id="15839"></path><path d="M0 975.99857h1023.9985" fill="#ffffff" p-id="15840"></path><path d="M0 991.998547h1023.9985" fill="#ffffff" p-id="15841"></path><path d="M0 1007.998523h1023.9985" fill="#ffffff" p-id="15842"></path><path d="M1015.331513 922.766648l-285.581582-283.449584c57.542916-80.985881 87.378872-183.283732 72.460894-291.974573C776.636862 164.05876 627.452081 19.136972 442.037352 2.087997 190.555721-23.485966-22.564967 189.633722 3.009996 443.247351c17.049975 183.283732 161.971763 334.59851 345.254494 360.173472 108.691841 14.917978 210.988691-14.917978 291.974572-72.460894l283.449585 283.449585c12.786981 12.786981 31.967953 12.786981 44.754934 0l44.754935-44.754934c12.786981-12.786981 12.786981-34.09895 2.130997-46.886932zM128.750811 402.75241c0-151.315778 123.609819-274.925597 274.925598-274.925597s274.925597 123.609819 274.925597 274.925597c0 151.315778-123.609819 274.925597-274.925597 274.925597S128.750811 556.199185 128.750811 402.75241z" fill="#ffffff" p-id="15843"></path></svg>